<?xml version="1.0" standalone="no"?>
<!DOCTYPE svg PUBLIC "-//W3C//DTD SVG 20010904//EN"
 "http://www.w3.org/TR/2001/REC-SVG-20010904/DTD/svg10.dtd">
<svg version="1.0" xmlns="http://www.w3.org/2000/svg"
 width="512.000000pt" height="512.000000pt" viewBox="0 0 512.000000 512.000000"
 preserveAspectRatio="xMidYMid meet">

<g transform="translate(0.000000,512.000000) scale(0.100000,-0.100000)"
fill="#000000" stroke="none">
<path d="M399 5016 c-74 -26 -136 -85 -171 -161 l-23 -50 0 -560 c0 -636 -2
-616 82 -706 61 -65 120 -89 246 -96 l102 -6 192 -188 c176 -174 195 -189 227
-189 23 0 44 8 56 20 18 18 20 33 20 190 l0 170 480 0 479 0 21 -70 c105 -351
389 -633 743 -734 225 -65 439 -58 668 20 l77 27 243 -42 c273 -46 286 -47
317 -25 30 21 28 47 -17 299 l-38 210 38 75 c211 426 129 932 -205 1266 -257
258 -633 370 -994 298 -28 -6 -32 -4 -37 22 -19 88 -85 177 -160 217 l-40 22
-1135 2 c-911 2 -1142 0 -1171 -11z m2264 -150 c49 -21 79 -59 84 -109 l5 -45
-90 -47 c-362 -187 -592 -560 -596 -967 l-1 -98 -523 0 -523 0 -26 -26 c-25
-25 -26 -28 -21 -135 3 -60 3 -109 0 -109 -3 0 -67 61 -143 135 l-138 135
-108 0 c-123 0 -162 14 -200 70 l-23 33 0 537 0 537 23 33 c12 18 38 41 57 51
33 18 83 19 1113 19 891 0 1083 -2 1110 -14z m728 -255 c344 -89 602 -347 695
-696 14 -54 18 -104 18 -215 -1 -127 -4 -156 -28 -235 -14 -49 -49 -134 -76
-188 -28 -54 -50 -109 -50 -122 0 -13 13 -101 30 -196 16 -95 28 -174 26 -177
-2 -2 -98 13 -213 32 l-209 36 -84 -30 c-126 -47 -211 -62 -345 -62 -249 -1
-462 84 -643 256 -128 122 -220 277 -261 438 -26 100 -24 378 3 473 106 380
397 643 781 706 80 13 271 2 356 -20z"/>
<path d="M629 4679 c-50 -19 -63 -85 -24 -124 l24 -25 701 0 701 0 24 25 c41
40 26 106 -28 125 -39 13 -1361 13 -1398 -1z"/>
<path d="M605 4295 c-30 -30 -32 -64 -4 -99 l20 -26 593 0 c585 0 593 0 611
20 27 30 25 88 -4 111 -22 18 -52 19 -608 19 l-584 0 -24 -25z"/>
<path d="M623 3948 c-28 -13 -46 -58 -37 -92 14 -58 -3 -56 621 -56 322 0 582
4 596 9 35 14 53 62 35 97 -25 54 -18 54 -628 53 -374 0 -572 -4 -587 -11z"/>
<path d="M3135 4468 c-11 -6 -128 -113 -260 -237 -432 -405 -405 -378 -405
-409 0 -55 68 -90 121 -62 19 10 19 4 19 -290 0 -278 1 -301 18 -318 17 -17
45 -19 278 -26 143 -3 375 -3 517 0 237 7 258 9 274 27 16 17 19 51 23 325 4
260 7 303 19 289 36 -45 121 -2 121 61 0 28 -31 61 -312 324 -172 162 -324
302 -338 311 -28 20 -47 21 -75 5z m298 -436 l127 -124 0 -314 0 -314 -75 0
-75 0 0 205 c0 192 -1 206 -20 225 -19 19 -33 20 -225 20 -192 0 -206 -1 -225
-20 -19 -19 -20 -33 -20 -225 l0 -205 -80 0 -80 0 0 314 0 314 203 190 202
190 70 -66 c39 -36 127 -122 198 -190z m-175 -604 l3 -148 -96 0 -95 0 0 143
c0 79 3 147 7 151 4 4 46 5 93 4 l85 -3 3 -147z"/>
<path d="M1625 3186 c-109 -35 -194 -97 -254 -187 -126 -189 -103 -429 56
-588 266 -266 718 -121 784 251 32 176 -65 385 -219 475 -100 59 -266 81 -367
49z m253 -166 c68 -29 144 -112 167 -181 26 -76 17 -179 -21 -249 -113 -209
-418 -212 -539 -5 -122 207 46 477 286 461 30 -2 79 -14 107 -26z"/>
<path d="M4075 2318 c-81 -15 -171 -64 -235 -128 -140 -140 -177 -350 -94
-526 31 -66 121 -165 181 -201 266 -156 610 -14 688 282 67 259 -104 526 -369
574 -69 13 -101 12 -171 -1z m234 -183 c175 -96 218 -315 92 -474 -17 -21 -58
-53 -93 -71 -55 -30 -72 -34 -138 -35 -90 0 -162 29 -223 91 -60 61 -80 107
-85 202 -4 77 -2 87 27 147 59 119 158 178 291 172 61 -3 86 -9 129 -32z"/>
<path d="M1550 2138 c-259 -27 -456 -117 -561 -258 -49 -65 -75 -122 -96 -210
-29 -126 -4 -387 52 -532 6 -16 -21 -18 -408 -20 -392 -3 -416 -4 -436 -22
-21 -19 -21 -26 -21 -367 l0 -348 26 -20 27 -21 1602 0 1603 0 18 -52 c25 -67
95 -145 159 -174 l50 -24 596 0 c661 0 649 -1 728 66 23 20 53 56 68 81 66
114 103 411 69 557 -75 317 -359 475 -856 476 -245 0 -412 -31 -567 -106 l-92
-44 -479 0 -480 0 24 82 c54 182 65 317 39 452 -53 281 -284 447 -674 486
-119 12 -270 11 -391 -2z m466 -160 c3 -4 -54 -70 -127 -148 l-134 -141 -132
135 c-73 73 -133 138 -133 144 0 6 17 13 38 15 57 7 480 2 488 -5z m-336 -645
l0 -213 -283 0 -283 0 -22 63 c-73 209 -79 408 -17 545 30 65 107 142 177 176
l53 26 187 -192 188 -193 0 -212z m675 496 c33 -31 63 -73 81 -112 28 -60 29
-68 28 -207 0 -128 -4 -156 -27 -233 -15 -49 -34 -104 -42 -123 l-14 -34 -275
0 -276 0 0 217 0 218 187 187 186 187 50 -26 c28 -14 74 -47 102 -74z m2120
-740 c120 -24 227 -72 289 -129 93 -85 139 -239 117 -389 -17 -114 -57 -260
-78 -283 -42 -48 -47 -48 -640 -48 l-558 0 -39 23 c-74 42 -117 174 -117 362
-1 259 104 389 367 455 173 44 467 48 659 9z m-1131 -183 c-39 -86 -56 -187
-52 -303 l5 -103 -1534 0 -1533 0 0 230 0 230 1569 0 1570 0 -25 -54z"/>
<path d="M1962 1557 c-29 -31 -29 -77 1 -105 22 -20 33 -22 160 -22 124 0 139
2 157 20 12 12 20 33 20 55 0 22 -8 43 -20 55 -18 18 -33 20 -158 20 -132 0
-140 -1 -160 -23z"/>
</g>
</svg>
