<?xml version="1.0" standalone="no"?>
<!DOCTYPE svg PUBLIC "-//W3C//DTD SVG 20010904//EN"
 "http://www.w3.org/TR/2001/REC-SVG-20010904/DTD/svg10.dtd">
<svg version="1.0" xmlns="http://www.w3.org/2000/svg"
 width="512.000000pt" height="512.000000pt" viewBox="0 0 512.000000 512.000000"
 preserveAspectRatio="xMidYMid meet">

<g transform="translate(0.000000,512.000000) scale(0.100000,-0.100000)"
fill="#000000" stroke="none">
<path d="M2434 4881 c-25 -12 -137 -109 -285 -248 -134 -126 -272 -255 -305
-286 l-61 -57 -5 64 c-6 69 -24 105 -65 127 -38 20 -488 20 -526 0 -63 -34
-62 -29 -59 -436 l3 -371 -320 -301 c-301 -284 -320 -305 -341 -360 -84 -222
149 -431 357 -320 24 12 97 73 163 135 l120 114 0 -322 c0 -302 -1 -322 -17
-315 -10 3 -86 9 -169 12 l-152 6 -6 55 c-9 77 -35 130 -89 179 -69 63 -123
76 -315 71 -133 -3 -164 -6 -202 -24 -54 -25 -103 -72 -133 -128 -22 -41 -22
-43 -25 -659 -2 -401 1 -624 7 -636 15 -28 63 -42 92 -27 49 24 49 22 49 654
0 652 -3 625 61 658 43 22 311 20 350 -3 62 -37 59 5 59 -970 0 -685 -3 -893
-13 -912 -6 -13 -25 -34 -40 -45 -26 -19 -42 -21 -181 -21 -217 0 -228 8 -236
174 -5 93 -8 105 -29 122 -34 27 -75 24 -100 -7 -18 -23 -21 -41 -21 -120 0
-155 49 -243 165 -296 46 -21 64 -23 220 -23 166 0 171 1 227 28 87 43 122 92
155 214 l8 32 536 -203 c295 -112 553 -206 574 -210 21 -4 67 -7 104 -7 74 0
1623 222 1716 246 87 22 231 96 295 152 367 321 1047 943 1070 979 78 123 60
284 -43 387 -92 92 -234 118 -350 65 -32 -15 -201 -124 -376 -242 -176 -118
-322 -212 -325 -209 -8 8 -8 1343 0 1343 3 0 62 -52 130 -116 69 -63 144 -124
167 -134 95 -43 226 -14 296 65 46 53 63 99 64 170 1 101 -19 130 -214 315
-338 321 -323 309 -369 290 -38 -16 -56 -59 -38 -94 7 -14 110 -115 228 -226
118 -110 223 -216 234 -235 47 -90 -44 -191 -137 -151 -18 7 -419 376 -892
820 -473 443 -871 809 -884 813 -13 3 -34 2 -47 -3 -12 -5 -400 -364 -860
-799 -461 -434 -853 -802 -872 -817 -51 -41 -103 -39 -148 6 -27 27 -34 42
-34 73 0 21 8 50 18 64 32 48 1846 1751 1882 1766 67 29 69 28 616 -484 639
-599 588 -553 624 -553 38 0 70 32 70 70 0 35 55 -19 -588 584 -329 309 -531
491 -563 509 -64 34 -160 37 -225 8z m-804 -634 l0 -103 -127 -120 c-71 -66
-152 -142 -180 -168 l-53 -49 0 272 0 271 180 0 180 0 0 -103z m1644 -642
l556 -520 0 -797 0 -798 -104 -69 -105 -70 -107 7 -108 7 -13 73 c-30 183
-152 326 -324 381 l-36 12 -6 181 c-4 100 -7 325 -7 501 l0 320 -40 39 -41 38
-391 0 c-372 0 -392 -1 -423 -20 -60 -37 -60 -34 -65 -507 l-5 -432 -105 34
c-58 19 -192 78 -300 133 -120 60 -232 109 -292 127 l-98 29 0 406 1 405 640
603 640 602 89 -82 c48 -46 338 -317 644 -603z m-394 -1295 c0 -362 -3 -460
-12 -459 -7 0 -157 17 -333 38 l-320 37 -3 422 -2 422 335 0 335 0 0 -460z
m-1785 -155 c187 -28 330 -78 518 -181 152 -83 290 -135 442 -168 39 -9 266
-38 505 -66 239 -28 451 -55 470 -61 57 -17 133 -75 168 -126 32 -48 63 -155
49 -169 -4 -4 -354 23 -778 60 -711 62 -772 66 -795 51 -48 -31 -40 -103 15
-124 14 -5 400 -41 856 -80 923 -79 939 -80 1046 -83 l77 -2 536 360 537 359
64 0 c71 0 103 -17 143 -75 30 -45 30 -122 -1 -171 -28 -45 -1031 -949 -1107
-997 -60 -39 -125 -66 -192 -81 -24 -6 -405 -62 -848 -126 -595 -86 -818 -115
-855 -110 -28 3 -302 101 -612 218 l-563 212 0 688 0 687 113 0 c61 0 157 -7
212 -15z"/>
</g>
</svg>
