<?xml version="1.0" standalone="no"?>
<!DOCTYPE svg PUBLIC "-//W3C//DTD SVG 20010904//EN"
 "http://www.w3.org/TR/2001/REC-SVG-20010904/DTD/svg10.dtd">
<svg version="1.0" xmlns="http://www.w3.org/2000/svg"
 width="512.000000pt" height="512.000000pt" viewBox="0 0 512.000000 512.000000"
 preserveAspectRatio="xMidYMid meet">

<g transform="translate(0.000000,512.000000) scale(0.100000,-0.100000)"
fill="#000000" stroke="none">
<path d="M4670 5033 c-184 -46 -335 -85 -337 -86 -1 -2 7 -40 19 -85 16 -66
24 -82 37 -78 68 21 384 96 388 93 7 -8 -439 -452 -572 -569 -565 -497 -1105
-860 -1760 -1183 -731 -360 -1441 -584 -2302 -725 -67 -11 -73 -14 -68 -33 2
-12 9 -49 15 -81 5 -33 11 -61 13 -63 4 -3 196 30 412 71 509 97 1064 266
1580 481 221 92 664 312 880 437 668 387 1246 839 1782 1394 l193 199 0 -227
0 -228 85 0 85 0 0 356 0 356 -29 29 c-20 19 -39 29 -58 28 -15 0 -179 -39
-363 -86z"/>
<path d="M4235 3490 c-11 -4 -181 -170 -377 -367 l-358 -359 0 -1297 0 -1297
-85 0 -85 0 0 940 c0 781 -2 946 -14 973 -8 18 -167 185 -363 380 l-349 347
-44 0 -44 0 -349 -347 c-196 -195 -355 -362 -363 -380 -12 -27 -14 -192 -14
-973 l0 -940 -85 0 -85 0 0 617 0 617 -363 363 c-354 355 -363 363 -402 363
-38 0 -48 -8 -400 -360 l-360 -360 -5 -617 -5 -618 -42 -3 -43 -3 0 -85 0 -84
2560 0 2560 0 0 84 0 85 -42 3 -43 3 -3 1299 -2 1300 -333 334 c-182 184 -350
347 -371 363 -40 30 -57 34 -91 19z m625 -2057 l0 -1263 -170 0 -170 0 0 188
0 189 -26 24 c-25 24 -27 24 -230 24 -269 0 -248 19 -252 -235 l-3 -190 -170
0 -169 0 0 1262 0 1263 297 297 298 298 297 -297 298 -298 0 -1262z m-1998
870 l298 -298 0 -917 0 -918 -170 0 -170 0 0 169 c0 194 -7 227 -56 247 -47
20 -361 20 -408 0 -49 -20 -56 -53 -56 -247 l0 -169 -170 0 -170 0 0 917 0
918 297 297 c164 164 300 298 303 298 3 0 139 -134 302 -297z m-1705 -675
l293 -293 0 -582 0 -583 -169 0 -170 0 -3 190 c-4 254 17 235 -252 235 -203 0
-205 0 -230 -24 l-26 -24 0 -189 0 -188 -170 0 -170 0 0 582 0 583 292 292
c161 161 297 293 303 293 5 0 142 -132 302 -292z m-217 -1328 l0 -130 -85 0
-85 0 0 130 0 130 85 0 85 0 0 -130z m1705 0 l0 -125 -85 0 -85 0 -3 114 c-1
63 0 121 2 128 4 10 26 13 88 11 l83 -3 0 -125z m1705 0 l0 -130 -85 0 -85 0
0 130 0 130 85 0 85 0 0 -130z"/>
<path d="M3893 2636 c-17 -8 -36 -23 -42 -35 -7 -12 -11 -94 -11 -215 0 -192
0 -195 24 -223 l24 -28 375 0 375 0 26 24 26 24 0 207 0 207 -26 24 -26 24
-356 2 c-289 2 -363 0 -389 -11z m287 -251 l0 -85 -85 0 -85 0 0 85 0 85 85 0
85 0 0 -85z m340 0 l0 -86 -82 3 -83 3 -3 83 -3 82 86 0 85 0 0 -85z"/>
<path d="M3879 1947 c-35 -27 -39 -54 -39 -247 l0 -192 29 -29 29 -29 362 0
c369 0 389 2 417 39 9 11 12 75 13 219 0 202 0 203 -25 227 l-24 25 -373 0
c-277 -1 -377 -4 -389 -13z m301 -242 l0 -85 -85 0 -85 0 0 85 0 85 85 0 85 0
0 -85z m340 0 l0 -85 -85 0 -85 0 0 85 0 85 85 0 85 0 0 -85z"/>
<path d="M3869 1251 l-29 -29 0 -192 c0 -193 4 -220 39 -247 12 -9 112 -12
389 -13 l373 0 24 25 c25 24 25 25 25 224 0 110 -3 207 -6 216 -16 42 -45 45
-424 45 l-362 0 -29 -29z m311 -226 l0 -85 -85 0 -85 0 0 85 0 85 85 0 85 0 0
-85z m340 0 l0 -85 -85 0 -85 0 0 85 0 85 85 0 85 0 0 -85z"/>
<path d="M2159 1934 c-23 -25 -24 -31 -27 -209 -4 -204 5 -247 53 -265 35 -13
715 -13 750 0 48 18 57 61 53 265 -3 178 -4 184 -27 209 l-24 26 -377 0 -377
0 -24 -26z m311 -229 l0 -85 -85 0 -85 0 0 85 0 85 85 0 85 0 0 -85z m350 0
l0 -85 -85 0 -85 0 0 85 0 85 85 0 85 0 0 -85z"/>
<path d="M2163 1256 l-28 -24 0 -207 0 -207 28 -24 28 -24 369 0 369 0 28 24
28 24 0 207 0 207 -28 24 -28 24 -369 0 -369 0 -28 -24z m307 -231 l0 -85 -85
0 -85 0 0 85 0 85 85 0 85 0 0 -85z m350 0 l0 -85 -85 0 -85 0 0 85 0 85 85 0
85 0 0 -85z"/>
<path d="M475 1268 c-43 -23 -45 -33 -45 -245 0 -203 0 -204 25 -228 l24 -25
373 0 c277 1 377 4 389 13 35 27 39 54 39 247 l0 192 -29 29 -29 29 -364 0
c-243 -1 -370 -4 -383 -12z m295 -243 l0 -85 -85 0 -85 0 0 85 0 85 85 0 85 0
0 -85z m340 0 l0 -85 -85 0 -85 0 0 85 0 85 85 0 85 0 0 -85z"/>
</g>
</svg>
